<svg width="32" height="32" viewBox="0 0 32 32" fill="none" xmlns="http://www.w3.org/2000/svg">
<path d="M7.54565 8.5H7.52765M20.5 31H11.5C4 31 1 28 1 20.5V11.5C1 4 4 1 11.5 1H20.5C28 1 31 4 31 11.5V20.5C31 28 28 31 20.5 31ZM16 21.25C15.3106 21.25 14.6279 21.1142 13.9909 20.8504C13.354 20.5865 12.7752 20.1998 12.2877 19.7123C11.8002 19.2248 11.4135 18.646 11.1496 18.0091C10.8858 17.3721 10.75 16.6894 10.75 16C10.75 15.3106 10.8858 14.6279 11.1496 13.9909C11.4135 13.354 11.8002 12.7752 12.2877 12.2877C12.7752 11.8002 13.354 11.4135 13.9909 11.1496C14.6279 10.8858 15.3106 10.75 16 10.75C17.3924 10.75 18.7277 11.3031 19.7123 12.2877C20.6969 13.2723 21.25 14.6076 21.25 16C21.25 17.3924 20.6969 18.7277 19.7123 19.7123C18.7277 20.6969 17.3924 21.25 16 21.25Z" stroke="white" stroke-width="2" stroke-linecap="round" stroke-linejoin="round"/>
</svg>
