<svg width="76" height="81" viewBox="0 0 76 81" fill="none" xmlns="http://www.w3.org/2000/svg">
<path d="M25.9746 63V21.042H41.2316C44.1755 21.042 46.6264 21.52 48.5841 22.4761C50.5565 23.4321 52.0359 24.7365 53.0221 26.3892C54.0083 28.0418 54.5014 29.9198 54.5014 32.0232C54.5014 33.7714 54.1849 35.267 53.552 36.5099C52.919 37.7528 52.0579 38.7567 50.9687 39.5215C49.8794 40.2864 48.665 40.8395 47.3255 41.181V41.5088C48.7828 41.6044 50.1959 42.0824 51.5648 42.9429C52.9338 43.7897 54.0598 44.978 54.943 46.5077C55.8262 48.0374 56.2678 49.8676 56.2678 51.9983C56.2678 54.1153 55.76 56.007 54.7443 57.6733C53.7286 59.3259 52.1683 60.6303 50.0634 61.5864C47.9732 62.5288 45.3089 63 42.0706 63H25.9746ZM30.1034 59.5581H42.0706C45.5592 59.5581 48.1351 58.8411 49.7985 57.407C51.4765 55.9728 52.3155 54.17 52.3155 51.9983C52.3155 50.4003 51.896 48.9525 51.057 47.655C50.2327 46.3438 49.0625 45.3058 47.5463 44.5409C46.0449 43.7761 44.2786 43.3936 42.2472 43.3936H30.1034V59.5581ZM30.1034 39.9927H41.6069C43.388 39.9927 44.9483 39.6513 46.2878 38.9684C47.6273 38.2855 48.6724 37.343 49.4231 36.1411C50.1738 34.9392 50.5492 33.5665 50.5492 32.0232C50.5492 29.7969 49.769 27.9872 48.2087 26.594C46.6484 25.1872 44.3227 24.4838 41.2316 24.4838H30.1034V39.9927Z" fill="#63EDD1"/>
<path d="M38.603 1.90507L38 1.57297L37.397 1.90507L20.0314 11.4688L2.42252 20.6414L1.74011 20.9969L1.75011 21.7662L1.99341 40.5L1.75011 59.2338L1.74011 60.0031L2.42252 60.3586L20.0316 69.5313L37.397 79.0949L38 79.427L38.603 79.0949L55.9685 69.5313L73.5775 60.3586L74.2599 60.0031L74.2499 59.2338L74.0066 40.5L74.2499 21.7662L74.2599 20.9969L73.5775 20.6414L55.9686 11.4688L38.603 1.90507Z" stroke="#63EDD1" stroke-width="2.5"/>
</svg>
