<svg width="32" height="32" viewBox="0 0 32 32" fill="none" xmlns="http://www.w3.org/2000/svg">
<path d="M31 5.5V26.5C31 27.6935 30.6353 28.8381 29.9861 29.682C29.337 30.5259 28.4565 31 27.5385 31H4.46154C3.54348 31 2.66303 30.5259 2.01386 29.682C1.3647 28.8381 1 27.6935 1 26.5V5.5M31 5.5C31 4.30653 30.6353 3.16193 29.9861 2.31802C29.337 1.47411 28.4565 1 27.5385 1H4.46154C3.54348 1 2.66303 1.47411 2.01386 2.31802C1.3647 3.16193 1 4.30653 1 5.5M31 5.5V5.986C31.0001 6.75429 30.8488 7.50981 30.5607 8.18059C30.2725 8.85137 29.857 9.41507 29.3538 9.818L17.8154 19.048C17.2695 19.4851 16.6411 19.7165 16 19.7165C15.3589 19.7165 14.7305 19.4851 14.1846 19.048L2.64615 9.82C2.14296 9.41707 1.72749 8.85337 1.43934 8.18259C1.15118 7.51181 0.999934 6.75629 1 5.988V5.5" stroke="white" stroke-width="2" stroke-linecap="round" stroke-linejoin="round"/>
</svg>
