<svg width="30" height="30" viewBox="0 0 30 30" fill="none" xmlns="http://www.w3.org/2000/svg">
<path d="M1 6.625C1 16.98 9.395 25.375 19.75 25.375H22.5625C23.3084 25.375 24.0238 25.0787 24.5512 24.5512C25.0787 24.0238 25.375 23.3084 25.375 22.5625V20.8475C25.375 20.2025 24.9363 19.64 24.31 19.4838L18.7813 18.1012C18.2313 17.9637 17.6538 18.17 17.315 18.6225L16.1025 20.2388C15.75 20.7088 15.1412 20.9162 14.59 20.7137C12.5436 19.9614 10.6852 18.7732 9.14348 17.2315C7.60176 15.6898 6.41359 13.8314 5.66125 11.785C5.45875 11.2338 5.66625 10.625 6.13625 10.2725L7.7525 9.06C8.20625 8.72125 8.41125 8.1425 8.27375 7.59375L6.89125 2.065C6.81517 1.76087 6.63965 1.49088 6.39257 1.29792C6.14548 1.10496 5.841 1.0001 5.5275 1H3.8125C3.06658 1 2.35121 1.29632 1.82376 1.82376C1.29632 2.35121 1 3.06658 1 3.8125V6.625Z" stroke="white" stroke-linecap="round" stroke-linejoin="round"/>
</svg>
