<svg width="32" height="32" viewBox="0 0 32 32" fill="none" xmlns="http://www.w3.org/2000/svg">
<path d="M9.93676 17.493L23.3863 30.6653C23.5417 30.8184 23.7303 30.924 23.9334 30.9715C24.1366 31.019 24.3474 31.0069 24.545 30.9364C24.7427 30.8658 24.9205 30.7393 25.061 30.5691C25.2014 30.399 25.2997 30.1911 25.3461 29.9659L30.9713 2.62213C31.0185 2.38664 31.0073 2.14132 30.939 1.91235C30.8707 1.68338 30.7478 1.47935 30.5834 1.32206C30.4191 1.16476 30.2194 1.0601 30.0058 1.01924C29.7922 0.978385 29.5726 1.00287 29.3705 1.09008L1.75333 13.1633C0.646247 13.6462 0.795852 15.4447 1.96278 15.7112L9.93676 17.493ZM9.93676 17.493L30.2981 1.12338M9.93676 17.493V28.3339C9.93716 28.5981 10.0081 28.8561 10.1406 29.0753C10.273 29.2945 10.4611 29.4649 10.6808 29.5649C10.9004 29.6648 11.1418 29.6898 11.3743 29.6367C11.6068 29.5835 11.8198 29.4547 11.9864 29.2665L16.6541 24.0708" stroke="white" stroke-width="1.5" stroke-linecap="round" stroke-linejoin="round"/>
</svg>
