<svg width="32" height="32" viewBox="0 0 32 32" fill="none" xmlns="http://www.w3.org/2000/svg">
<path d="M23.65 28.9L23.2641 28.2569C23.4421 28.1501 23.6564 28.1218 23.856 28.1788L23.65 28.9ZM29.05 23.5L28.3242 23.6888C28.2768 23.5066 28.2996 23.3132 28.3882 23.1471L29.05 23.5ZM30.34 28.459L31.0658 28.2702L31.0659 28.2703L30.34 28.459ZM28.4755 30.2785L28.6815 29.5573L28.6819 29.5575L28.4755 30.2785ZM9.25 20.272L8.49998 20.272L8.50002 20.2671L9.25 20.272ZM9.4195 21.0085L10.0969 20.6865L10.0984 20.6898L9.4195 21.0085ZM9.8785 21.697L9.32365 22.2016L9.32322 22.2011L9.8785 21.697ZM10.9885 22.4935L11.2727 21.7994L11.2781 21.8016L10.9885 22.4935ZM14.5105 22.258L14.8088 22.9461L14.8032 22.9485L14.5105 22.258ZM16.8355 20.92L16.3904 20.3163L16.3931 20.3144L16.8355 20.92ZM19.0525 19.03L19.5842 19.559L19.5805 19.5627L19.0525 19.03ZM20.938 16.8235L20.3326 16.3808L20.3335 16.3796L20.938 16.8235ZM22.264 14.5225L22.9557 14.8126L22.9512 14.823L22.264 14.5225ZM22.507 11.0125L21.8106 11.291L21.8089 11.2867L22.507 11.0125ZM21.7285 9.8845L21.2144 10.4306L21.2081 10.4246L21.2019 10.4185L21.7285 9.8845ZM19.7755 9.3715L20.0989 10.0483L20.0898 10.0525L19.7755 9.3715ZM19.3225 9.7495L19.9367 10.18L19.9339 10.1839L19.3225 9.7495ZM17.7535 11.9575L18.3649 12.3919L18.3638 12.3934L17.7535 11.9575ZM17.4835 12.43L18.179 12.711L18.1736 12.7237L17.4835 12.43ZM17.389 12.841L16.639 12.8496V12.841H17.389ZM17.5315 13.321L18.1646 12.919L18.1708 12.9286L18.1766 12.9384L17.5315 13.321ZM17.9095 13.7995L18.431 13.2605L18.4405 13.2697L18.4496 13.2791L17.9095 13.7995ZM18.424 14.3335L17.8995 14.8696L17.8916 14.8618L17.8839 14.8539L18.424 14.3335ZM18.532 14.6035H17.782V14.5903L17.7825 14.5771L18.532 14.6035ZM18.511 14.758L19.2386 14.9399L19.2294 14.9769L19.2164 15.0127L18.511 14.758ZM18.457 14.893L19.1685 15.1302L19.1482 15.1912L19.1178 15.2478L18.457 14.893ZM17.8285 15.757L18.3999 16.2429L18.395 16.2485L17.8285 15.757ZM16.849 16.8235L17.3839 17.3494L17.3738 17.3593L16.849 16.8235ZM15.7735 17.8165L16.259 18.3881L16.2565 18.3902L15.7735 17.8165ZM14.902 18.436L15.2529 19.0988L15.232 19.1099L15.2105 19.1196L14.902 18.436ZM14.779 18.4915L15.0875 19.1751L15.0597 19.1876L15.0311 19.1979L14.779 18.4915ZM14.611 18.5185L14.5949 17.7687L14.612 17.7683L14.629 17.7687L14.611 18.5185ZM14.3335 18.403L14.8607 17.8696L14.8689 17.8777L14.8769 17.886L14.3335 18.403ZM13.8205 17.896L13.2933 18.4294L13.2925 18.4287L13.8205 17.896ZM13.333 17.518L12.9824 18.181L12.9555 18.1668L12.9299 18.1505L13.333 17.518ZM12.853 17.377L12.8419 16.6269L12.8561 16.627L12.853 17.377ZM12.4405 17.4655L12.738 18.154L12.7298 18.1575L12.7215 18.1609L12.4405 17.4655ZM11.968 17.728L11.5341 17.1161L11.5431 17.11L11.968 17.728ZM9.73 19.315L10.1638 19.9268L10.1516 19.9355L10.139 19.9437L9.73 19.315ZM9.358 19.7455L8.66665 19.4548L8.67147 19.4433L8.67667 19.432L9.358 19.7455ZM24.0359 29.5431C21.668 30.9639 18.8344 31.75 16 31.75V30.25C18.5656 30.25 21.132 29.5361 23.2641 28.2569L24.0359 29.5431ZM16 31.75C7.33579 31.75 0.25 24.6642 0.25 16H1.75C1.75 23.8358 8.16421 30.25 16 30.25V31.75ZM0.25 16C0.25 7.33579 7.33579 0.25 16 0.25V1.75C8.16421 1.75 1.75 8.16421 1.75 16H0.25ZM16 0.25C24.6642 0.25 31.75 7.33579 31.75 16H30.25C30.25 8.16421 23.8358 1.75 16 1.75V0.25ZM31.75 16C31.75 18.8405 30.9609 21.5108 29.7118 23.8529L28.3882 23.1471C29.5391 20.9892 30.25 18.5595 30.25 16H31.75ZM29.7758 23.3112L31.0658 28.2702L29.6142 28.6478L28.3242 23.6888L29.7758 23.3112ZM31.0659 28.2703C31.1657 28.6543 31.1622 29.0579 31.0558 29.4401L29.6108 29.0376C29.6462 28.9102 29.6474 28.7757 29.6141 28.6477L31.0659 28.2703ZM31.0558 29.4401C30.9493 29.8223 30.7437 30.1696 30.4597 30.4467L29.4121 29.3732C29.5067 29.2808 29.5753 29.165 29.6108 29.0376L31.0558 29.4401ZM30.4597 30.4467C30.1757 30.7238 29.8235 30.9209 29.4388 31.018L29.0718 29.5636C29.2 29.5312 29.3174 29.4655 29.4121 29.3732L30.4597 30.4467ZM29.4388 31.018C29.0541 31.1151 28.6506 31.1087 28.2691 30.9995L28.6819 29.5575C28.809 29.5938 28.9435 29.596 29.0718 29.5636L29.4388 31.018ZM28.2695 30.9997L23.444 29.6212L23.856 28.1788L28.6815 29.5573L28.2695 30.9997ZM10 20.272C10 20.4028 10.0288 20.5434 10.0969 20.6865L8.74212 21.3305C8.57918 20.9876 8.5 20.6272 8.5 20.272H10ZM10.0984 20.6898C10.1845 20.8733 10.2976 21.0428 10.4338 21.1929L9.32322 22.2011C9.08655 21.9405 8.89016 21.6459 8.74057 21.3272L10.0984 20.6898ZM10.4334 21.1924C10.6984 21.4839 10.9731 21.6768 11.2727 21.7994L10.7043 23.1876C10.1759 22.9712 9.72156 22.6391 9.32365 22.2016L10.4334 21.1924ZM11.2781 21.8016C11.5866 21.9308 11.9272 22 12.3055 22V23.5C11.7388 23.5 11.2004 23.3952 10.6989 23.1854L11.2781 21.8016ZM12.3055 22C12.8771 22 13.5139 21.8658 14.2178 21.5675L14.8032 22.9485C13.9501 23.3102 13.1139 23.5 12.3055 23.5V22ZM14.2122 21.5699C14.9832 21.2356 15.714 20.8151 16.3904 20.3163L17.2806 21.5237C16.513 22.0896 15.6838 22.5668 14.8088 22.9461L14.2122 21.5699ZM16.3931 20.3144C17.1481 19.7629 17.8605 19.1555 18.5245 18.4973L19.5805 19.5627C18.8632 20.2737 18.0935 20.9299 17.2779 21.5256L16.3931 20.3144ZM18.5208 18.501C19.1774 17.8411 19.7831 17.1323 20.3326 16.3808L21.5434 17.2662C20.9492 18.0788 20.2942 18.8453 19.5842 19.559L18.5208 18.501ZM20.3335 16.3796C20.8263 15.7085 21.2433 14.9849 21.5768 14.222L22.9512 14.823C22.5733 15.6873 22.1008 16.5071 21.5425 17.2674L20.3335 16.3796ZM21.5724 14.2324C21.8653 13.5339 22 12.8977 22 12.3145H23.5C23.5 13.1323 23.3107 13.9661 22.9556 14.8126L21.5724 14.2324ZM22 12.3145C22 11.9445 21.9349 11.6017 21.8106 11.291L23.2034 10.734C23.4031 11.2333 23.5 11.7665 23.5 12.3145H22ZM21.8089 11.2867C21.6903 10.9847 21.4982 10.6978 21.2144 10.4306L22.2426 9.33842C22.6758 9.74621 22.9997 10.2153 23.2051 10.7383L21.8089 11.2867ZM21.2019 10.4185C20.884 10.1051 20.593 10 20.323 10V8.5C21.055 8.5 21.709 8.8119 22.2551 9.35047L21.2019 10.4185ZM20.323 10C20.2393 10 20.1616 10.0182 20.0989 10.0482L19.4521 8.6948C19.7284 8.56276 20.0287 8.5 20.323 8.5V10ZM20.0898 10.0525C20.0272 10.0814 19.979 10.1195 19.9367 10.1799L18.7083 9.31905C18.912 9.02849 19.1728 8.82363 19.4612 8.69053L20.0898 10.0525ZM19.9339 10.1839L18.3649 12.3919L17.1421 11.5231L18.7111 9.31507L19.9339 10.1839ZM18.3638 12.3934C18.2668 12.5292 18.2104 12.6329 18.1789 12.711L16.7881 12.149C16.8766 11.9301 17.0002 11.7218 17.1432 11.5216L18.3638 12.3934ZM18.1736 12.7237C18.1587 12.7587 18.1494 12.7883 18.1442 12.8108C18.1388 12.8338 18.139 12.8437 18.139 12.841H16.639C16.639 12.5861 16.7057 12.3423 16.7934 12.1363L18.1736 12.7237ZM18.139 12.8324C18.1393 12.8631 18.1482 12.8931 18.1646 12.919L16.8984 13.723C16.7324 13.4617 16.6426 13.1592 16.639 12.8496L18.139 12.8324ZM18.1766 12.9384C18.2467 13.0566 18.3323 13.1649 18.431 13.2605L17.388 14.3385C17.1933 14.1501 17.0246 13.9366 16.8864 13.7036L18.1766 12.9384ZM18.4496 13.2791L18.9641 13.8131L17.8839 14.8539L17.3694 14.3199L18.4496 13.2791ZM18.9485 13.7974C19.0589 13.9054 19.1455 14.0352 19.2028 14.1786L17.8101 14.7357C17.8303 14.786 17.8607 14.8316 17.8995 14.8696L18.9485 13.7974ZM19.2028 14.1786C19.2602 14.3219 19.287 14.4756 19.2815 14.6299L17.7825 14.5771C17.7806 14.6313 17.79 14.6853 17.8101 14.7357L19.2028 14.1786ZM19.282 14.6035C19.282 14.7336 19.2624 14.8445 19.2386 14.9399L17.7834 14.5761C17.7854 14.568 17.7848 14.569 17.7839 14.5757C17.7828 14.5832 17.782 14.593 17.782 14.6035H19.282ZM19.2164 15.0127C19.1983 15.0628 19.18 15.1053 19.1714 15.1253C19.1663 15.1372 19.1648 15.1409 19.1639 15.1431C19.1633 15.1446 19.1654 15.1394 19.1685 15.1302L17.7455 14.6558C17.7636 14.6013 17.7849 14.5526 17.7921 14.5358C17.8023 14.5119 17.8042 14.5072 17.8056 14.5033L19.2164 15.0127ZM19.1178 15.2478C18.9605 15.5407 18.7106 15.8775 18.3998 16.2429L17.2572 15.2711C17.5434 14.9345 17.7135 14.6923 17.7962 14.5382L19.1178 15.2478ZM18.395 16.2485C18.0837 16.6073 17.7489 16.978 17.3838 17.3493L16.3142 16.2977C16.6511 15.955 16.9643 15.6087 17.262 15.2655L18.395 16.2485ZM17.3738 17.3593C17.0017 17.7238 16.6366 18.0675 16.259 18.3881L15.288 17.2449C15.6274 16.9565 15.9643 16.6402 16.3242 16.2877L17.3738 17.3593ZM16.2565 18.3902C15.8836 18.7042 15.5471 18.9431 15.2529 19.0988L14.5511 17.7732C14.7159 17.6859 14.9614 17.5198 15.2905 17.2428L16.2565 18.3902ZM15.2105 19.1196L15.0875 19.1751L14.4705 17.8079L14.5935 17.7524L15.2105 19.1196ZM15.0311 19.1979C14.8906 19.248 14.7421 19.2719 14.593 19.2683L14.629 17.7687C14.5943 17.7679 14.5597 17.7734 14.5269 17.7851L15.0311 19.1979ZM14.6271 19.2683C14.471 19.2717 14.316 19.2424 14.1719 19.1824L14.7483 17.7976C14.6997 17.7774 14.6475 17.7675 14.5949 17.7687L14.6271 19.2683ZM14.1719 19.1824C14.0278 19.1225 13.8977 19.0331 13.7901 18.92L14.8769 17.886C14.8406 17.8479 14.7968 17.8178 14.7483 17.7976L14.1719 19.1824ZM13.8063 18.9364L13.2933 18.4294L14.3477 17.3626L14.8607 17.8696L13.8063 18.9364ZM13.2925 18.4287C13.1537 18.2911 13.0508 18.2172 12.9824 18.181L13.6836 16.855C13.9272 16.9838 14.1483 17.1649 14.3485 17.3633L13.2925 18.4287ZM12.9299 18.1505C12.906 18.1353 12.8783 18.1271 12.8499 18.127L12.8561 16.627C13.1679 16.6283 13.473 16.7179 13.7361 16.8855L12.9299 18.1505ZM12.8641 18.1269C12.8207 18.1276 12.7779 18.1367 12.738 18.154L12.143 16.777C12.3638 16.6816 12.6014 16.6306 12.8419 16.6271L12.8641 18.1269ZM12.7215 18.1609C12.6361 18.1954 12.5286 18.2528 12.3929 18.346L11.5431 17.11C11.7434 16.9722 11.9479 16.8556 12.1595 16.7701L12.7215 18.1609ZM12.4018 18.3398L10.1638 19.9268L9.29617 18.7032L11.5342 17.1162L12.4018 18.3398ZM10.139 19.9437C10.0956 19.9719 10.061 20.0119 10.0393 20.059L8.67667 19.432C8.81674 19.1276 9.04013 18.8691 9.321 18.6863L10.139 19.9437ZM10.0494 20.0362C10.0173 20.1125 10.0005 20.1942 9.99998 20.2769L8.50002 20.2671C8.50184 19.988 8.55846 19.712 8.66665 19.4548L10.0494 20.0362Z" fill="white"/>
</svg>
